# xmcd
#
# Track frame offsets:
#	150
#	17417
#	35987
#	53907
#	72977
#	94112
#	103465
#	124737
#	142805
#	159947
#	178422
#	198780
#	212300
#	234882
#	253260
#	285507
#
# Disc length: 4072 seconds
#
# Revision: 2
# Processed by: cddbd v1.5.2PL0 Copyright (c) Steve Scherf et al.
# Submitted via: audiograbber 1.83.01
#
DISCID=e00fe610
DTITLE=L.V. - I Am L.V.
DYEAR=1996
DGENRE=Rap
TTITLE0=Throw Your Hands Up (Treach Version)
TTITLE1=The 'G' Within
TTITLE2=The Wrong Come Up
TTITLE3=Take A Ride
TTITLE4=Gangsta's Boggie (Barr 9 Version)
TTITLE5=Crazy Little G's (Part 1)
TTITLE6=Crazy Little G's (Part 2)
TTITLE7=Gangsta's Paradise (L.V. Version)
TTITLE8=Fire From The Gun
TTITLE9=Cool Out
TTITLE10=I Am L.V.
TTITLE11=Hey Love
TTITLE12=It 's Wet
TTITLE13=Heaven Must Be Like This
TTITLE14=Just A Little Something
TTITLE15=Gangsta's Boogie (Prode'je Version)
EXTD=www.RapMusicGuide.com\n
EXTT0=
EXTT1=
EXTT2=
EXTT3=
EXTT4=
EXTT5=
EXTT6=
EXTT7=
EXTT8=
EXTT9=
EXTT10=
EXTT11=
EXTT12=
EXTT13=
EXTT14=
EXTT15=
PLAYORDER=
